<svg id="Layer_1" data-name="Layer 1" xmlns="http://www.w3.org/2000/svg" viewBox="0 0 1428.78 723.9"><defs><style>.cls-1{fill:#021628;}.cls-2{fill:#ffbc00;}</style></defs><title>Tipalti_Wordmark-MC-D</title><g id="Artwork_1" data-name="Artwork 1"><path class="cls-1" d="M102.52,614.35c-60.55,0-84.43-34.6-74.26-92.26L55.1,369.87H.32l10.47-59.4H65.53l16.58-94h72.12l-16.58,94h75.54l-10.48,59.4H127.18L101.45,515.75c-4.06,23.06,4.59,32.87,27.65,32.87a371,371,0,0,0,47.22-2.89l-10.68,60.55A261.67,261.67,0,0,1,102.52,614.35Z"/><path class="cls-1" d="M205.17,608.67l52.58-298.2h72.83L278,608.67Z"/><path class="cls-1" d="M1177.15,614.35c-60.55,0-84.43-34.6-74.26-92.26l26.84-152.22H1075l10.47-59.4h54.74l16.58-94h72.12l-16.58,94h75.54l-10.48,59.4h-75.53l-25.73,145.88c-4.06,23.06,4.59,32.87,27.65,32.87a371.09,371.09,0,0,0,47.22-2.89l-10.68,60.55A261.67,261.67,0,0,1,1177.15,614.35Z"/><path class="cls-1" d="M1279.8,608.67l52.58-298.2h72.83l-52.58,298.2Z"/><path class="cls-1" d="M543.4,593.08c-21,14.9-46.65,24.07-77,24.07-35.53,0-62-12.61-72.79-29.22L369.65,723.74H298l72.65-412h66.91l-6.2,32.67c22.62-27.51,58-39.55,90.64-39.55,29.8,0,52.05,10.32,67.76,25.22C620.16,359.27,630,404,620.14,460.13,609.83,518.59,584.08,563.86,543.4,593.08Zm-2.27-205c-8-13.18-21.66-23.51-44-23.51-56.2,0-77.07,53.33-84.66,96.34s-5.41,95.76,50.78,95.76c22.37,0,39.67-10.32,52.32-23.51,18.34-19.49,27.11-46.45,31.66-72.25S552.6,407.58,541.13,388.08Z"/><path class="cls-1" d="M857,614.12c-31,0-44.73-19.5-43.08-41.87-18,24.09-56.06,44.73-98.49,44.73-71.11,0-99.92-44.73-91.33-93.47,10-56.77,59.93-89.45,117.41-93.47l88.85-6.3,3.23-18.35c5-28.1-1.45-47-42.17-47-33.26,0-55.38,14.91-62,42.44H660.08c15.84-67.09,74.43-96.91,140.95-96.91,51,0,91.78,16.06,101.1,60.78,4.11,18.93,1.52,40.14-2,60.21L880.6,535.56c-2.43,13.76,1.25,18.92,13.29,18.92a46.46,46.46,0,0,0,9.38-1.15L894,606.09C881,611.25,874.2,614.12,857,614.12ZM821,477l-76.7,5.73c-22.1,1.72-45.64,14.91-49.88,39-4,22.94,13.5,37.28,35.86,37.28,44.72,0,80.51-24.09,88.3-68.24Z"/><path class="cls-1" d="M1006.65,612.68c-48.74,0-77.28-23.51-67.27-80.28l55.59-316h72.25l-53.46,303.92c-3,17.2-1,28.67,23.61,28.67,6.31,0,8.13-.58,12.14-.58l-10.61,60.21C1024.06,611.53,1021,612.68,1006.65,612.68Z"/><path class="cls-2" d="M1428.75,167.94a57.16,57.16,0,0,1-84.52,52.1c-1-.59-2-1.18-3-1.75-.06-.08-.09-.11-.15-.11C1190.68,129.75,1014.26,81.52,827,87.74c-191.92,6.38-368.71,69.05-515,171.69-.76.5-1.55,1-2.3,1.57a10.24,10.24,0,0,1-4.32,1.12,10.35,10.35,0,0,1-10.7-10,10.15,10.15,0,0,1,1.25-5.29c1.71-1.58,3.42-3.09,5.15-4.64C461.8,98.5,671.94,8.25,904.28.54c177.51-5.9,345.29,37.13,490.4,117,.06,0,.09,0,.15.08l4.06,2.22A58.33,58.33,0,0,1,1415,132.66,56.9,56.9,0,0,1,1428.75,167.94Z"/></g></svg>